HIERARCHY
ROOT Hips
{
  OFFSET 51.9427 55.9748 -6.65994
  CHANNELS 6 Xposition Yposition Zposition Zrotation Xrotation Yrotation
  JOINT spine
  {
    OFFSET 0 6.84637 0.3937
    CHANNELS 3 Zrotation Xrotation Yrotation
    JOINT spine1
    {
      OFFSET 0 9.49621 0
      CHANNELS 3 Zrotation Xrotation Yrotation
      JOINT spine2
      {
        OFFSET 0 9.09909 0
        CHANNELS 3 Zrotation Xrotation Yrotation
        JOINT Neck
        {
          OFFSET 0 23.3612 1.11378
          CHANNELS 3 Zrotation Xrotation Yrotation
          JOINT Head
          {
            OFFSET 0 7.05802 0
            CHANNELS 3 Zrotation Xrotation Yrotation
            End Site
            {
              OFFSET 0 17.0844 -5.63419
            }
          }
        }
        JOINT RightShoulder
        {
          OFFSET -3.83136 9.82631 -0.533491
          CHANNELS 3 Zrotation Xrotation Yrotation
          JOINT RightArm
          {
            OFFSET 0 12.8881 0
            CHANNELS 3 Zrotation Xrotation Yrotation
            JOINT RightArmRoll
            {
              OFFSET 0 6.50617 0
              CHANNELS 3 Zrotation Xrotation Yrotation
              JOINT RightForeArm
              {
                OFFSET 0 18.9501 0
                CHANNELS 3 Zrotation Xrotation Yrotation
                JOINT RightForeArmRoll
                {
                  OFFSET 0 7.30092 0
                  CHANNELS 3 Zrotation Xrotation Yrotation
                  JOINT RightHand
                  {
                    OFFSET 0 14.6514 0
                    CHANNELS 3 Zrotation Xrotation Yrotation
                    End Site
                    {
                      OFFSET 0 0 0
                    }
                  }
                }
              }
            }
          }
        }
        JOINT LeftShoulder
        {
          OFFSET 3.83136 9.82631 -0.533491
          CHANNELS 3 Zrotation Xrotation Yrotation
          JOINT LeftArm
          {
            OFFSET 0 12.8881 0
            CHANNELS 3 Zrotation Xrotation Yrotation
            JOINT LeftArmRoll
            {
              OFFSET 0 6.50617 0
              CHANNELS 3 Zrotation Xrotation Yrotation
              JOINT LeftForeArm
              {
                OFFSET 0 18.9501 0
                CHANNELS 3 Zrotation Xrotation Yrotation
                JOINT LeftForeArmRoll
                {
                  OFFSET 0 7.30092 0
                  CHANNELS 3 Zrotation Xrotation Yrotation
                  JOINT LeftHand
                  {
                    OFFSET 0 14.6514 0
                    CHANNELS 3 Zrotation Xrotation Yrotation
                    End Site
                    {
                      OFFSET 0 0 0
                    }
                  }
                }
              }
            }
          }
        }
      }
    }
  }
  JOINT RightUpLeg
  {
    OFFSET -6.06837 -1.11278 -0.933477
    CHANNELS 3 Zrotation Xrotation Yrotation
    JOINT RightUpLegRoll
    {
      OFFSET 0 17.1796 0
      CHANNELS 3 Zrotation Xrotation Yrotation
      JOINT RightLeg
      {
        OFFSET 0 -21.2743 0
        CHANNELS 3 Zrotation Xrotation Yrotation
        JOINT RightLegRoll
        {
          OFFSET 0 21.3439 0
          CHANNELS 3 Zrotation Xrotation Yrotation
          JOINT RightFoot
          {
            OFFSET 0 17.7652 0
            CHANNELS 3 Zrotation Xrotation Yrotation
            JOINT RightToeBase
            {
              OFFSET 0 14.8508 0
              CHANNELS 3 Zrotation Xrotation Yrotation
              End Site
              {
                OFFSET 0.0062947 7.19214 -0.829004
              }
            }
          }
        }
      }
    }
  }
  JOINT LeftUpLeg
  {
    OFFSET 6.06837 -1.11278 -0.933477
    CHANNELS 3 Zrotation Xrotation Yrotation
    JOINT LeftUpLegRoll
    {
      OFFSET 0 17.1797 0
      CHANNELS 3 Zrotation Xrotation Yrotation
      JOINT LeftLeg
      {
        OFFSET 0 21.2742 0
        CHANNELS 3 Zrotation Xrotation Yrotation
        JOINT LeftLegRoll
        {
          OFFSET 0 21.5412 0
          CHANNELS 3 Zrotation Xrotation Yrotation
          JOINT LeftFoot
          {
            OFFSET 0 17.5679 0
            CHANNELS 3 Zrotation Xrotation Yrotation
            JOINT LeftToeBase
            {
              OFFSET 0 14.8508 0
              CHANNELS 3 Zrotation Xrotation Yrotation
              End Site
              {
                OFFSET -0.0282102 7.19213 -0.829005
              }
            }
          }
        }
      }
    }
  }
}
MOTION
Frames: 13
Frame Time: 0.00208333
52.8829 63.6957 -0.0333259 6.60485 39.2973 -9.12743 -0.262386 1.40509 0.252286 -0.538613 6.81166 0.5622 -0.546692 8.45667 0.572274 -16.785 -2.86371 2.28594 12.6134 14.3777 -0.970705 38.219 -6.36599 -2.79864 134.007 39.4144 -65.7034 2.00669e-007 1.61648e-006 -2.3606e-006 15.1364 47.5592 -0.769162 -3.15089e-006 2.01604e-005 -3.00108 8.03007 -4.95147 0.697704 -61.4806 -10.1691 6.32241 -105.115 41.2386 62.4685 -1.30531e-005 2.8523e-006 1.04963e-005 -39.6969 55.9258 15.1449 2.27214e-005 5.74108e-007 3.00022 -8.02916 -4.95141 -0.697671 16.1144 72.653 162.201 -180 7.01646e-015 179.517 168.641 76.0704 -172.205 -1.26489e-006 1.23472e-006 1.34548 -22.1799 72.5518 24.171 8.13649 25.2327 -3.48774 -37.1154 72.4161 -145.503 4.54188e-006 -4.6773e-006 -0.340537 -27.8426 -79.8358 -20.2758 4.1073e-006 -5.44446e-006 -0.662809 36.6436 78.1488 -36.5918 -8.12572 25.2333 3.48232 
52.8797 63.6428 -0.0689338 6.58744 39.231 -9.11164 -0.261057 1.40579 0.253757 -0.535775 6.81308 0.564757 -0.543884 8.45809 0.574791 -16.7724 -2.83625 2.28503 12.5877 14.3698 -0.971797 38.253 -6.38568 -2.81844 133.955 39.4274 -65.8187 2.00669e-007 1.61648e-006 -2.3606e-006 15.061 47.6204 -0.721725 -3.15089e-006 2.01604e-005 -3.00109 8.03007 -4.95147 0.697704 -61.4677 -10.1653 6.32005 -105.097 41.2108 62.514 -1.30531e-005 2.8523e-006 1.04963e-005 -39.6434 55.9995 15.1442 2.27214e-005 5.74108e-007 3.00022 -8.02916 -4.95141 -0.697671 16.07 72.6327 162.253 -180 7.01646e-015 179.515 168.67 76.1467 -172.218 -1.26489e-006 1.23472e-006 1.34872 -22.154 72.5362 24.1499 8.13649 25.2327 -3.48774 -37.084 72.3899 -145.556 4.54188e-006 -4.6773e-006 -0.34148 -27.8831 -79.9176 -20.3256 4.1073e-006 -5.44446e-006 -0.671336 36.5885 78.1347 -36.5411 -8.12572 25.2333 3.48232 
52.8792 63.5928 -0.111561 6.5694 39.1641 -9.09384 -0.259654 1.40599 0.255042 -0.532805 6.81346 0.566612 -0.540937 8.45848 0.576603 -16.7579 -2.79941 2.28478 12.5564 14.354 -0.97218 38.2995 -6.40856 -2.84188 133.887 39.4458 -65.9442 2.00669e-007 1.61648e-006 -2.3606e-006 14.9795 47.6928 -0.671326 -3.15089e-006 2.01604e-005 -3.0011 8.03007 -4.95147 0.697704 -61.4588 -10.159 6.31626 -105.072 41.1822 62.5563 -1.30531e-005 2.8523e-006 1.04963e-005 -39.5869 56.0742 15.1417 2.27214e-005 5.74108e-007 3.00022 -8.02916 -4.95141 -0.697671 16.0327 72.6121 162.299 -180 7.01646e-015 179.514 168.699 76.2237 -172.231 -1.26489e-006 1.23472e-006 1.35196 -22.1287 72.5209 24.1294 8.13649 25.2327 -3.48774 -37.0485 72.3652 -145.612 4.54188e-006 -4.6773e-006 -0.342521 -27.9232 -79.9996 -20.3754 4.1073e-006 -5.44446e-006 -0.679913 36.5328 78.1205 -36.4899 -8.12572 25.2333 3.48232 
52.8773 63.5403 -0.146597 6.55079 39.0966 -9.0743 -0.258187 1.40575 0.256175 -0.529723 6.81299 0.567881 -0.537871 8.45801 0.577827 -16.7415 -2.75469 2.28509 12.5207 14.3318 -0.971967 38.3565 -6.43415 -2.86841 133.807 39.4685 -66.0783 2.00669e-007 1.61648e-006 -2.3606e-006 14.8925 47.7754 -0.618315 -3.15089e-006 2.01604e-005 -3.00111 8.03007 -4.95147 0.697704 -61.4535 -10.1507 6.31124 -105.04 41.1531 62.5956 -1.30531e-005 2.8523e-006 1.04963e-005 -39.5281 56.1494 15.1377 2.27214e-005 5.74108e-007 3.00022 -8.02916 -4.95141 -0.697671 16.0018 72.5914 162.338 -180 7.01646e-015 179.513 168.726 76.3014 -172.243 -1.26489e-006 1.23472e-006 1.3552 -22.104 72.506 24.1093 8.13649 25.2327 -3.48774 -37.0097 72.3417 -145.672 4.54188e-006 -4.6773e-006 -0.343647 -27.963 -80.0818 -20.4252 4.1073e-006 -5.44446e-006 -0.688543 36.4765 78.1062 -36.4381 -8.12572 25.2333 3.48232 
52.879 63.4868 -0.176968 6.53166 39.0283 -9.05329 -0.256666 1.40517 0.257191 -0.526549 6.81183 0.568677 -0.534708 8.45685 0.578576 -16.7238 -2.70355 2.28587 12.4815 14.3044 -0.971271 38.4222 -6.46195 -2.89748 133.714 39.4944 -66.2193 2.00669e-007 1.61648e-006 -2.3606e-006 14.8007 47.8669 -0.563048 -3.15089e-006 2.01604e-005 -3.00111 8.03007 -4.95147 0.697704 -61.4509 -10.1407 6.30522 -105.004 41.1237 62.6323 -1.30531e-005 2.8523e-006 1.04963e-005 -39.4676 56.2246 15.1324 2.27214e-005 5.74108e-007 3.00022 -8.02916 -4.95141 -0.697671 15.9762 72.5708 162.372 -180 7.01645e-015 179.511 168.753 76.3795 -172.255 -1.26489e-006 1.23472e-006 1.35846 -22.0797 72.4913 24.0896 8.13649 25.2327 -3.48774 -36.9686 72.3196 -145.734 4.54188e-006 -4.6773e-006 -0.344847 -28.0022 -80.1642 -20.4747 4.1073e-006 -5.44446e-006 -0.697231 36.4198 78.0918 -36.3859 -8.12572 25.2333 3.48232 
52.8784 63.4361 -0.214164 6.51209 38.9592 -9.03108 -0.255102 1.40433 0.258126 -0.523301 6.81016 0.569117 -0.531467 8.45518 0.578967 -16.7049 -2.64747 2.28703 12.4398 14.2732 -0.970204 38.4945 -6.49147 -2.92852 133.613 39.5225 -66.3657 2.00669e-007 1.61648e-006 -2.3606e-006 14.7045 47.9662 -0.505882 -3.15089e-006 2.01604e-005 -3.00112 8.03007 -4.95147 0.697704 -61.4506 -10.1294 6.29841 -104.964 41.0942 62.6664 -1.30531e-005 2.8523e-006 1.04963e-005 -39.4062 56.2994 15.1263 2.27214e-005 5.74108e-007 3.00023 -8.02916 -4.95141 -0.697671 15.9553 72.5505 162.402 -180 7.01645e-015 179.51 168.779 76.458 -172.267 -1.26489e-006 1.23472e-006 1.36172 -22.0558 72.4768 24.0701 8.13649 25.2327 -3.48774 -36.926 72.2986 -145.798 4.54188e-006 -4.6773e-006 -0.346107 -28.0406 -80.2466 -20.5238 4.1073e-006 -5.44446e-006 -0.705981 36.3626 78.0774 -36.3333 -8.12572 25.2333 3.48232 
52.8791 63.3887 -0.253542 6.49212 38.8892 -9.00794 -0.253503 1.40332 0.259013 -0.52 6.80814 0.569315 -0.528169 8.45316 0.579115 -16.6852 -2.58793 2.28846 12.3965 14.2394 -0.968881 38.5716 -6.52222 -2.96098 133.504 39.5517 -66.5157 2.00669e-007 1.61648e-006 -2.3606e-006 14.6046 48.072 -0.447185 -3.15089e-006 2.01604e-005 -3.00113 8.03007 -4.95147 0.697704 -61.4518 -10.1172 6.29103 -104.922 41.065 62.6982 -1.30531e-005 2.8523e-006 1.04963e-005 -39.3444 56.3732 15.1195 2.27214e-005 5.74108e-007 3.00023 -8.02916 -4.95141 -0.697671 15.9382 72.5307 162.429 -180 7.01645e-015 179.509 168.805 76.5367 -172.279 -1.26489e-006 1.23472e-006 1.365 -22.0321 72.4623 24.0508 8.13649 25.2327 -3.48774 -36.8828 72.2788 -145.862 4.54188e-006 -4.6773e-006 -0.347417 -28.0782 -80.3292 -20.5722 4.1073e-006 -5.44446e-006 -0.714798 36.305 78.0629 -36.2804 -8.12572 25.2333 3.48232 
52.8776 63.3353 -0.289 6.4718 38.8182 -8.98416 -0.25188 1.40222 0.259887 -0.516665 6.80594 0.569385 -0.524836 8.45097 0.579135 -16.6651 -2.52641 2.29009 12.3526 14.2042 -0.967413 38.6517 -6.55372 -2.9943 133.39 39.581 -66.6677 2.00669e-007 1.61648e-006 -2.3606e-006 14.5016 48.1832 -0.387327 -3.15089e-006 2.01604e-005 -3.00113 8.03007 -4.95147 0.697704 -61.4539 -10.1043 6.28329 -104.88 41.0362 62.728 -1.30531e-005 2.8523e-006 1.04963e-005 -39.283 56.4455 15.1124 2.27214e-005 5.74108e-007 3.00023 -8.02916 -4.95141 -0.697671 15.9239 72.5117 162.452 -180 7.01645e-015 179.508 168.832 76.6155 -172.291 -1.26489e-006 1.23472e-006 1.36829 -22.0085 72.4478 24.0315 8.13649 25.2327 -3.48774 -36.8401 72.2601 -145.925 4.54188e-006 -4.6773e-006 -0.348763 -28.1147 -80.4118 -20.6198 4.1073e-006 -5.44446e-006 -0.723686 36.2472 78.0484 -36.2272 -8.12572 25.2333 3.48232 
52.8806 63.2751 -0.322183 6.45119 38.746 -8.95999 -0.250244 1.40112 0.260783 -0.513315 6.80375 0.569443 -0.521488 8.44878 0.579141 -16.6449 -2.46438 2.29181 12.3091 14.1692 -0.965913 38.7328 -6.58547 -3.02793 133.272 39.6093 -66.8199 2.00669e-007 1.61648e-006 -2.3606e-006 14.396 48.2987 -0.326689 -3.15089e-006 2.01604e-005 -3.00114 8.03007 -4.95147 0.697704 -61.4563 -10.0912 6.2754 -104.839 41.0081 62.7559 -1.30531e-005 2.8523e-006 1.04963e-005 -39.2225 56.5158 15.1052 2.27214e-005 5.74108e-007 3.00023 -8.02916 -4.95141 -0.697671 15.9118 72.4937 162.474 -180 7.01645e-015 179.507 168.859 76.6942 -172.303 -1.26489e-006 1.23472e-006 1.37159 -21.9849 72.4332 24.0121 8.13649 25.2327 -3.48774 -36.7986 72.2423 -145.988 4.54188e-006 -4.6773e-006 -0.350134 -28.15 -80.4946 -20.6664 4.1073e-006 -5.44446e-006 -0.73265 36.189 78.0337 -36.1738 -8.12572 25.2333 3.48232 
52.8801 63.2248 -0.358867 6.43034 38.6727 -8.93571 -0.248605 1.4001 0.261736 -0.509969 6.80172 0.569603 -0.518145 8.44676 0.579251 -16.6248 -2.40334 2.29352 12.2669 14.1354 -0.964494 38.813 -6.61698 -3.06129 133.153 39.6357 -66.9707 2.00669e-007 1.61648e-006 -2.3606e-006 14.2886 48.4171 -0.265658 -3.15089e-006 2.01604e-005 -3.00115 8.03007 -4.95147 0.697704 -61.4584 -10.0782 6.26759 -104.801 40.9809 62.7822 -1.30531e-005 2.8523e-006 1.04963e-005 -39.1638 56.5837 15.0983 2.27214e-005 5.74108e-007 3.00023 -8.02916 -4.95141 -0.697671 15.901 72.4768 162.494 -180 7.01645e-015 179.506 168.886 76.7728 -172.316 -1.26489e-006 1.23472e-006 1.37491 -21.9612 72.4184 23.9926 8.13649 25.2327 -3.48774 -36.7593 72.2255 -146.048 4.54188e-006 -4.6773e-006 -0.351517 -28.1839 -80.5774 -20.7118 4.1073e-006 -5.44446e-006 -0.741694 36.1307 78.019 -36.1203 -8.12572 25.2333 3.48232 
52.8809 63.1776 -0.400891 6.4093 38.5982 -8.91159 -0.246972 1.39925 0.26278 -0.506648 6.80003 0.569981 -0.514828 8.44507 0.579577 -16.6052 -2.34474 2.29515 12.2271 14.1043 -0.963268 38.8905 -6.64776 -3.09385 133.034 39.6593 -67.1184 2.00669e-007 1.61648e-006 -2.3606e-006 14.18 48.5374 -0.204632 -3.15089e-006 2.01604e-005 -3.00116 8.03007 -4.95147 0.697704 -61.4595 -10.0657 6.26007 -104.767 40.955 62.8072 -1.30531e-005 2.8523e-006 1.04963e-005 -39.1075 56.6487 15.092 2.27214e-005 5.74108e-007 3.00024 -8.02916 -4.95141 -0.697671 15.8906 72.4613 162.515 -180 7.01645e-015 179.504 168.915 76.8511 -172.33 -1.26489e-006 1.23472e-006 1.37824 -21.9373 72.4035 23.9728 8.13649 25.2327 -3.48774 -36.723 72.2096 -146.106 4.54188e-006 -4.6773e-006 -0.352899 -28.2161 -80.6602 -20.7557 4.1073e-006 -5.44446e-006 -0.750822 36.0722 78.0042 -36.0668 -8.12572 25.2333 3.48232 
52.8807 63.1232 -0.435636 6.38812 38.5223 -8.88789 -0.245355 1.39866 0.26395 -0.50337 6.79885 0.570691 -0.511559 8.4439 0.580237 -16.5864 -2.29008 2.29658 12.1906 14.0771 -0.962348 38.9634 -6.67734 -3.12503 132.917 39.6791 -67.2611 2.00669e-007 1.61648e-006 -2.3606e-006 14.0708 48.6583 -0.144016 -3.15089e-006 2.01604e-005 -3.00116 8.03007 -4.95147 0.697704 -61.4589 -10.054 6.25304 -104.738 40.9305 62.8309 -1.30531e-005 2.8523e-006 1.04963e-005 -39.0543 56.7102 15.0865 2.27214e-005 5.74108e-007 3.00024 -8.02916 -4.95141 -0.697671 15.8798 72.4473 162.535 -180 7.01645e-015 179.503 168.944 76.9289 -172.345 -1.26489e-006 1.23472e-006 1.3816 -21.913 72.3882 23.9527 8.13649 25.2327 -3.48774 -36.6907 72.1945 -146.159 4.54188e-006 -4.6773e-006 -0.35427 -28.2465 -80.7431 -20.798 4.1073e-006 -5.44446e-006 -0.760039 36.0136 77.9894 -36.0133 -8.12572 25.2333 3.48232 
52.8856 63.0653 -0.471869 6.36684 38.445 -8.86487 -0.243765 1.39841 0.265281 -0.500156 6.79836 0.571847 -0.508356 8.4434 0.581345 -16.5687 -2.24082 2.29773 12.1584 14.0551 -0.961844 39.0297 -6.7052 -3.15428 132.804 39.6941 -67.3971 2.00669e-007 1.61648e-006 -2.3606e-006 13.9616 48.7788 -0.0842275 -3.15089e-006 2.01604e-005 -3.00117 8.03007 -4.95147 0.697704 -61.4561 -10.0435 6.24674 -104.717 40.9077 62.8537 -1.30531e-005 2.8523e-006 1.04963e-005 -39.0047 56.7677 15.0823 2.27214e-005 5.74108e-007 3.00024 -8.02916 -4.95141 -0.697671 15.8678 72.4351 162.557 -180 7.01644e-015 179.502 168.975 77.0061 -172.362 -1.26489e-006 1.23472e-006 1.38497 -21.8884 72.3725 23.9321 8.13649 25.2327 -3.48774 -36.6632 72.1802 -146.208 4.54188e-006 -4.6773e-006 -0.355616 -28.275 -80.826 -20.8383 4.1073e-006 -5.44446e-006 -0.769349 35.955 77.9745 -35.9598 -8.12572 25.2333 3.48232 
